
<svg id="icon-id" viewBox="0 0 27 27" fill="none" xmlns="http://www.w3.org/2000/svg">
<path d="M25.5 18.75C23.6811 18.7529 21.8736 18.4645 20.1459 17.8959C19.8812 17.8109 19.5981 17.8008 19.328 17.8669C19.058 17.9329 18.8115 18.0724 18.6159 18.27L15.3159 21.57C11.0606 19.4004 7.60039 15.9407 5.43 11.6859L8.73 8.38588C8.92787 8.19047 9.06774 7.94406 9.13409 7.67398C9.20044 7.40391 9.19068 7.12074 9.10588 6.85588C8.53647 5.12773 8.24751 3.31954 8.25 1.5C8.24907 1.10246 8.09073 0.721472 7.80963 0.440369C7.52853 0.159267 7.14754 0.000932101 6.75 0H1.5C1.10246 0.000932101 0.721472 0.159267 0.440369 0.440369C0.159267 0.721472 0.000932101 1.10246 0 1.5C0 15.5841 11.4159 27 25.5 27C26.3259 27 27 26.3241 27 25.5V20.25C26.9991 19.8525 26.8407 19.4715 26.5596 19.1904C26.2785 18.9093 25.8975 18.7509 25.5 18.75Z" fill="currentColor"/>
</svg>
